<svg id="_x31__x2C_5" enable-background="new 0 0 24 24" height="512" viewBox="0 0 24 24" width="512" xmlns="http://www.w3.org/2000/svg"><path d="m13.75 13.75 3.17 9.5 1.76-4.57 4.57-1.76z" fill="#4caf50"/><path d="m16.917 24c-.005 0-.011 0-.017 0-.316-.007-.594-.212-.694-.513l-3.167-9.5c-.09-.27-.02-.567.181-.768.201-.202.498-.272.768-.181l9.5 3.167c.3.1.505.378.513.694.007.316-.185.604-.481.717l-4.263 1.64-1.64 4.263c-.112.291-.391.481-.7.481zm-1.981-9.064 2.031 6.093 1.009-2.623c.076-.198.233-.355.431-.431l2.623-1.009z"/><path d="m12 24c-6.617 0-12-5.383-12-12s5.383-12 12-12 12 5.383 12 12c0 .637-.047 1.252-.139 1.829-.066.409-.455.686-.859.622-.409-.066-.688-.451-.622-.859.08-.506.12-1.027.12-1.592 0-5.79-4.71-10.5-10.5-10.5s-10.5 4.71-10.5 10.5 4.71 10.5 10.5 10.5c.414 0 .75.336.75.75s-.336.75-.75.75z"/><path d="m12 24c-2.335 0-4.335-2.433-5.348-6.509-.426-1.684-.652-3.584-.652-5.491 0-1.914.226-3.807.653-5.494 1.012-4.073 3.012-6.506 5.347-6.506 2.336 0 4.335 2.433 5.348 6.509.415 1.609.632 3.374.642 5.237.002.415-.332.752-.746.754-.001 0-.003 0-.004 0-.413 0-.748-.333-.75-.746-.01-1.716-.216-3.402-.596-4.877-.812-3.269-2.34-5.377-3.894-5.377s-3.082 2.108-3.892 5.371c-.398 1.572-.608 3.337-.608 5.109 0 1.805.21 3.577.607 5.146.811 3.266 2.339 5.374 3.893 5.374.414 0 .75.336.75.75s-.336.75-.75.75z"/><path d="m12 7.898c-3.511 0-6.833-.726-9.114-1.992-.362-.201-.493-.658-.292-1.02.201-.363.659-.492 1.02-.292 2.066 1.147 5.122 1.804 8.386 1.804s6.32-.657 8.386-1.804c.362-.201.818-.071 1.02.292.201.362.07.818-.292 1.02-2.281 1.266-5.603 1.992-9.114 1.992z"/><path d="m12 23.96c-.414 0-.75-.336-.75-.75v-5.21c0-.414.336-.75.75-.75s.75.336.75.75v5.21c0 .414-.336.75-.75.75z"/><path d="m12 12.07c-.414 0-.75-.336-.75-.75v-10.57c0-.414.336-.75.75-.75s.75.336.75.75v10.57c0 .414-.336.75-.75.75z"/><path d="m11.33 12.73h-10.56c-.414 0-.75-.336-.75-.75s.336-.75.75-.75h10.56c.414 0 .75.336.75.75s-.336.75-.75.75z"/><path d="m23.23 12.73h-5.29c-.414 0-.75-.336-.75-.75s.336-.75.75-.75h5.29c.414 0 .75.336.75.75s-.336.75-.75.75z"/><path d="m3.25 19.5c-.264 0-.52-.14-.657-.387-.201-.362-.069-.819.293-1.02 1.189-.659 2.65-1.169 4.342-1.518 1.391-.289 2.865-.446 4.382-.466h.01c.41 0 .745.329.75.74.005.414-.326.754-.74.76-1.421.019-2.799.165-4.098.435-1.522.314-2.877.785-3.919 1.362-.115.064-.239.094-.363.094z"/></svg>